HIERARCHY
ROOT SpineBase
{
  OFFSET 0.000000 0.000000 0.000000
  CHANNELS 6 Xposition Yposition Zposition Zrotation Xrotation Yrotation
  JOINT SpineMid
  {
    OFFSET -0.000000 27.863216 0.000000
    CHANNELS 3 Zrotation Xrotation Yrotation
    JOINT SpineShoulder
    {
      OFFSET -0.098968 20.668698 -0.696566
      CHANNELS 3 Zrotation Xrotation Yrotation
      JOINT Neck
      {
        OFFSET -0.055813 6.835912 -0.522874
        CHANNELS 3 Zrotation Xrotation Yrotation
        JOINT Head
        {
          OFFSET -2.855756 13.056117 -0.260415
          CHANNELS 3 Zrotation Xrotation Yrotation
          End Site
          {
            OFFSET 0 0 0
          }
        }
      }
      JOINT ShoulderLeft
      {
        OFFSET -13.660524 -4.639701 5.469037
        CHANNELS 3 Zrotation Xrotation Yrotation
        JOINT ElbowLeft
        {
          OFFSET 0.746224 -25.257298 0.470107
          CHANNELS 3 Zrotation Xrotation Yrotation
          JOINT WristLeft
          {
            OFFSET 0.486734 -22.043840 5.245913
            CHANNELS 3 Zrotation Xrotation Yrotation
            JOINT HandLeft
            {
              OFFSET 1.550771 -4.659819 -2.006003
              CHANNELS 3 Zrotation Xrotation Yrotation
              JOINT HandTipLeft
              {
                OFFSET 2.340518 -6.701922 1.146985
                CHANNELS 3 Zrotation Xrotation Yrotation
                End Site
                {
                  OFFSET 0 0 0
                }
              }
              JOINT ThumbLeft
              {
                OFFSET -1.178367 1.945711 0.582560
                CHANNELS 3 Zrotation Xrotation Yrotation
                End Site
                {
                  OFFSET 0 0 0
                }
              }
            }
          }
        }
      }
      JOINT ShoulderRight
      {
        OFFSET 10.021390 -4.125206 -11.497617
        CHANNELS 3 Zrotation Xrotation Yrotation
        JOINT ElbowRight
        {
          OFFSET 5.316624 -23.498071 -3.378203
          CHANNELS 3 Zrotation Xrotation Yrotation
          JOINT WristRight
          {
            OFFSET 0.777452 -19.847437 -1.494180
            CHANNELS 3 Zrotation Xrotation Yrotation
            JOINT HandRight
            {
              OFFSET -0.904270 -5.387487 0.882775
              CHANNELS 3 Zrotation Xrotation Yrotation
              JOINT HandTipRight
              {
                OFFSET 0.414744 -7.281520 0.690504
                CHANNELS 3 Zrotation Xrotation Yrotation
                End Site
                {
                  OFFSET 0 0 0
                }
              }
              JOINT ThumbRight
              {
                OFFSET 2.129610 -1.367073 -2.424867
                CHANNELS 3 Zrotation Xrotation Yrotation
                End Site
                {
                  OFFSET 0 0 0
                }
              }
            }
          }
        }
      }
    }
  }
  JOINT HipLeft
  {
    OFFSET -5.513517 -0.014894 0.128729
    CHANNELS 3 Zrotation Xrotation Yrotation
    JOINT KneeLeft
    {
      OFFSET 13.298555 -39.299903 13.237603
      CHANNELS 3 Zrotation Xrotation Yrotation
      JOINT AnkleLeft
      {
        OFFSET 4.715094 -24.334274 5.724285
        CHANNELS 3 Zrotation Xrotation Yrotation
        JOINT FootLeft
        {
          OFFSET -3.407773 -6.641772 -1.681553
          CHANNELS 3 Zrotation Xrotation Yrotation
          End Site
          {
            OFFSET 0 0 0
          }
        }
      }
    }
  }
  JOINT HipRight
  {
    OFFSET 5.100254 1.091580 -6.626291
    CHANNELS 3 Zrotation Xrotation Yrotation
    JOINT KneeRight
    {
      OFFSET 8.886090 -32.060626 6.910500
      CHANNELS 3 Zrotation Xrotation Yrotation
      JOINT AnkleRight
      {
        OFFSET 4.342902 -29.693424 8.729535
        CHANNELS 3 Zrotation Xrotation Yrotation
        JOINT FootRight
        {
          OFFSET -4.609283 -3.271723 -11.433517
          CHANNELS 3 Zrotation Xrotation Yrotation
          End Site
          {
            OFFSET 0 0 0
          }
        }
      }
    }
  }
}
MOTION
Frames: 9
Frame Time: 0.033333
21.121841 70.290843 359.897473 0.000000 0.000000 32.474276 -0.000000 0.000000 -32.474276 -0.000000 0.000000 0.000000 -0.000000 0.000000 0.000000 0.000000 0.000000 0.000000 -0.000000 0.000000 0.000000 -0.000000 0.000000 0.000000 -0.000000 0.000000 0.000000 -0.000000 0.000000 0.000000 0.000000 0.000000 0.000000 0.000000 0.000000 0.000000 -0.000000 0.000000 0.000000 -0.000000 0.000000 0.000000 -0.000000 0.000000 0.000000 -0.000000 0.000000 0.000000 0.000000 0.000000 0.000000 0.000000 0.000000 0.000000 -0.000000 0.000000 -32.474276 -0.000000 0.000000 0.000000 -0.000000 0.000000 0.000000 0.000000 0.000000 0.000000 -0.000000 0.000000 -32.474276 -0.000000 0.000000 0.000000 -0.000000 0.000000 0.000000 0.000000 0.000000 0.000000
21.081942 70.274700 359.676768 0.102736 -0.005117 31.791520 -0.084626 0.058474 -31.791473 -0.000000 0.000000 0.000000 -0.000000 0.000000 0.000000 0.000000 0.000000 0.000000 4.333093 1.795471 0.065755 -14.408623 -2.247265 -2.970603 -3.364110 6.163999 10.904218 1.938851 -0.938467 -7.789004 0.000000 0.000000 0.000000 0.000000 0.000000 0.000000 1.773520 -2.674473 -0.818684 -7.474273 11.208977 2.335556 -1.484841 5.333258 -4.090468 2.475703 -6.251607 3.514701 0.000000 0.000000 0.000000 0.000000 0.000000 0.000000 -0.207332 1.204617 -31.720519 2.606673 -3.106352 0.024072 1.737346 4.986271 -2.590611 0.000000 0.000000 0.000000 -0.084626 0.058474 -31.791473 1.218998 0.861191 0.475490 2.358214 -12.598440 6.411961 0.000000 0.000000 0.000000
21.044000 70.254281 359.447431 0.193836 0.025819 31.310685 -0.179024 0.078673 -31.310606 -0.000000 0.000000 0.000000 -0.000000 0.000000 0.000000 0.000000 0.000000 0.000000 6.874633 2.735110 0.044559 -25.854297 -2.902280 -5.878849 -8.271847 9.725205 22.518245 3.547185 -0.609173 -15.171344 0.000000 0.000000 0.000000 0.000000 0.000000 0.000000 3.864115 -4.182201 -1.357969 -15.166717 19.182447 5.308836 -2.347407 10.469040 -7.283958 3.861165 -10.464322 6.345631 0.000000 0.000000 0.000000 0.000000 0.000000 0.000000 -0.531599 2.467698 -31.192519 4.892632 -5.697093 0.178761 3.028751 9.178297 -5.084601 0.000000 0.000000 0.000000 -0.805974 1.009453 -31.394541 3.391529 0.969633 0.991940 8.181559 -27.288151 16.885852 0.000000 0.000000 0.000000
21.008013 70.229585 359.209463 0.273267 0.092786 31.027593 -0.281994 0.061346 -31.027663 -0.000000 0.000000 0.000000 -0.357796 1.050948 0.226220 0.000000 0.000000 0.000000 8.050124 3.002099 0.027460 -35.516300 -2.315325 -8.421403 -12.651615 10.899791 33.915819 4.511082 1.212240 -21.647553 0.000000 0.000000 0.000000 0.000000 0.000000 0.000000 6.372787 -4.521528 -1.677120 -23.735028 24.990605 8.637905 -2.424204 14.243795 -9.867773 3.873921 -12.610096 8.264292 0.000000 0.000000 0.000000 0.000000 0.000000 0.000000 -0.973136 3.775851 -30.890060 7.006840 -7.911258 0.434407 3.625609 12.770602 -7.235936 0.000000 0.000000 0.000000 -1.057791 1.607656 -31.075269 4.905246 0.766254 1.334933 18.157997 -39.702846 31.285321 0.000000 0.000000 0.000000
20.973983 70.200613 358.962864 0.341005 0.195728 30.939770 -0.393113 0.007448 -30.940327 -0.000000 0.000000 0.000000 -0.309197 1.355212 0.294171 0.000000 0.000000 0.000000 8.040441 2.663736 0.041302 -44.489109 -0.592185 -10.497602 -15.174692 10.372668 44.866942 4.783279 4.644608 -27.185299 0.000000 0.000000 0.000000 0.000000 0.000000 0.000000 9.412266 -3.615604 -1.850557 -33.914402 29.427583 12.277442 -1.683757 16.362651 -12.205423 2.438480 -13.001516 9.319053 0.000000 0.000000 0.000000 0.000000 0.000000 0.000000 -1.528416 5.108792 -30.814878 9.037982 -9.822474 0.778806 3.365332 15.916087 -8.865184 0.000000 0.000000 0.000000 -1.215952 2.284877 -30.903923 6.288804 0.065618 1.590459 28.723403 -46.400573 45.349032 0.000000 0.000000 0.000000
20.941908 70.167364 358.707632 0.397035 0.334562 31.046487 -0.512704 -0.081864 -31.048012 -0.000000 0.000000 0.000000 -0.175720 1.637385 0.357395 0.000000 0.000000 0.000000 6.835235 1.688306 0.076312 -54.058993 2.428399 -11.956409 -14.860717 8.650718 55.864408 4.420398 10.063706 -31.956429 0.000000 0.000000 0.000000 0.000000 0.000000 0.000000 13.112329 -1.301535 -1.989579 -46.886439 33.252303 16.459100 0.051982 16.657602 -14.655503 -0.635753 -11.825409 9.652453 0.000000 0.000000 0.000000 0.000000 0.000000 0.000000 -2.188472 6.438917 -30.970514 11.033995 -11.462610 1.204774 2.142672 18.717443 -9.842113 0.000000 0.000000 0.000000 -1.278052 3.056959 -30.880749 7.533981 -1.154669 1.766325 34.587798 -48.406897 53.628576 0.000000 0.000000 0.000000
20.945789 70.052545 358.422617 0.507941 0.520657 31.204863 -0.704206 -0.182144 -31.208290 -0.000000 0.000000 0.000000 0.044875 1.972181 0.431648 0.000000 0.000000 0.000000 5.521891 -0.556933 0.113089 -73.569588 7.527001 -13.165533 -7.102627 5.334577 72.167430 -1.076904 23.198825 -43.098988 0.000000 0.000000 0.000000 0.000000 0.000000 0.000000 17.999911 2.105128 -2.374633 -71.791798 41.275952 27.801733 5.859310 15.356822 -18.116121 -7.111129 -3.845982 13.909018 0.000000 0.000000 0.000000 0.000000 0.000000 0.000000 -3.230435 8.257933 -31.230476 13.631995 -13.287587 1.862823 -1.713608 25.504761 -11.498158 0.000000 0.000000 0.000000 -1.790619 3.585109 -31.058091 9.105975 -1.764608 2.141424 25.893094 -44.901006 47.482599 0.000000 0.000000 0.000000
20.958303 69.949874 358.139126 0.602361 0.755759 31.505769 -0.908523 -0.329519 -31.512354 -0.000000 0.000000 0.000000 0.336539 2.233782 0.488680 0.000000 0.000000 0.000000 1.062868 -3.471673 -0.050564 -92.005710 11.760360 -12.210844 4.247553 7.186864 91.040884 -1.077377 35.168900 -48.284078 0.000000 0.000000 0.000000 0.000000 0.000000 0.000000 23.517531 7.768445 -3.110789 -102.899722 45.157587 41.341905 11.148972 16.704419 -21.185336 -13.762801 -3.422582 14.906167 0.000000 0.000000 0.000000 0.000000 0.000000 0.000000 -4.405207 9.792936 -31.714575 16.099710 -14.462664 2.610619 -4.835974 27.897214 -11.067370 0.000000 0.000000 0.000000 -1.227782 5.660996 -30.849534 9.998676 -6.424272 1.875802 17.520011 -38.648342 38.216756 0.000000 0.000000 0.000000
20.953850 69.810471 357.876659 0.663353 1.026958 32.448123 -0.315608 -0.058797 -32.436751 -0.428801 -0.807861 -0.021338 0.515564 2.273077 0.497013 0.000000 0.000000 0.000000 -7.390536 -7.205227 -0.817453 -108.183029 16.576360 -4.993182 16.905243 4.505546 107.566764 4.412179 44.124169 -53.725213 0.000000 0.000000 0.000000 0.000000 0.000000 0.000000 30.597865 16.739238 -4.894160 -133.503541 45.893591 49.587643 13.508531 14.600236 -27.374327 -17.678974 -10.465311 1.843028 0.000000 0.000000 0.000000 0.000000 0.000000 0.000000 -5.271274 10.711838 -32.868755 17.885414 -14.948148 3.214109 -7.823101 26.477340 -8.810517 0.000000 0.000000 0.000000 -1.132056 6.443290 -31.625344 10.859660 -8.384732 1.967052 20.371382 -39.857805 42.341754 0.000000 0.000000 0.000000
